<?xml version="1.0" encoding="utf-8"?>
<!-- Generator: Adobe Illustrator 23.0.0, SVG Export Plug-In . SVG Version: 6.00 Build 0)  -->
<svg version="1.1" id="Layer_1" xmlns="http://www.w3.org/2000/svg" xmlns:xlink="http://www.w3.org/1999/xlink" x="0px" y="0px"
	 viewBox="0 0 228.2 68.4" style="enable-background:new 0 0 228.2 68.4;" xml:space="preserve">
<style type="text/css">
	.st0{fill:#FFFFFF;stroke:#000000;stroke-miterlimit:10;}
	.st1{fill-rule:evenodd;clip-rule:evenodd;fill:#E5E6E7;}
	.st2{fill:none;}
	.st3{enable-background:new    ;}
	.st4{fill:#96979A;}
	.st5{fill:none;stroke:#96979A;stroke-width:0.9124;}
</style>
<rect x="3.6" y="31.3" class="st0" width="148" height="32"/>
<path class="st1" d="M5.2,33.2h144.7v27.9H5.2V33.2z M147.3,66.6c4,0,7.2-3.2,7.2-7.2h72V9h-72c0-4-3.2-7.2-7.2-7.2H8.7
	C4.7,1.8,1.5,5,1.5,9v50.4c0,4,3.2,7.2,7.2,7.2H147.3z"/>
<rect x="1.4" y="14.9" class="st2" width="152.8" height="12.2"/>
<g class="st3">
	<path class="st4" d="M41,24.2h-2l-0.8-2.1h-3.7l-0.8,2.1h-2l3.6-9.3h2L41,24.2z M37.5,20.5l-1.3-3.5L35,20.5H37.5z"/>
	<path class="st4" d="M41.3,22.3l1.8-0.3c0.1,0.3,0.2,0.6,0.5,0.8s0.6,0.3,1,0.3c0.5,0,0.8-0.1,1-0.3c0.2-0.1,0.2-0.3,0.2-0.5
		c0-0.1,0-0.2-0.1-0.3c-0.1-0.1-0.3-0.2-0.6-0.2c-1.4-0.3-2.4-0.6-2.7-0.9c-0.5-0.4-0.8-0.9-0.8-1.5c0-0.6,0.2-1.1,0.7-1.5
		s1.2-0.6,2.1-0.6c0.9,0,1.6,0.2,2.1,0.5c0.4,0.3,0.8,0.7,0.9,1.3l-1.7,0.3c-0.1-0.3-0.2-0.5-0.4-0.6c-0.2-0.1-0.5-0.2-0.9-0.2
		c-0.5,0-0.8,0.1-1,0.2c-0.1,0.1-0.2,0.2-0.2,0.4c0,0.1,0.1,0.2,0.2,0.3c0.2,0.1,0.7,0.3,1.7,0.5c1,0.2,1.6,0.5,2,0.8
		c0.4,0.3,0.6,0.8,0.6,1.3c0,0.6-0.3,1.1-0.8,1.6c-0.5,0.4-1.3,0.7-2.3,0.7c-0.9,0-1.6-0.2-2.2-0.6C41.8,23.4,41.5,22.9,41.3,22.3z"
		/>
	<path class="st4" d="M48.5,22.3l1.8-0.3c0.1,0.3,0.2,0.6,0.5,0.8s0.6,0.3,1,0.3c0.5,0,0.8-0.1,1-0.3c0.2-0.1,0.2-0.3,0.2-0.5
		c0-0.1,0-0.2-0.1-0.3c-0.1-0.1-0.3-0.2-0.6-0.2c-1.4-0.3-2.4-0.6-2.7-0.9c-0.5-0.4-0.8-0.9-0.8-1.5c0-0.6,0.2-1.1,0.7-1.5
		s1.2-0.6,2.1-0.6c0.9,0,1.6,0.2,2.1,0.5c0.4,0.3,0.8,0.7,0.9,1.3l-1.7,0.3c-0.1-0.3-0.2-0.5-0.4-0.6c-0.2-0.1-0.5-0.2-0.9-0.2
		c-0.5,0-0.8,0.1-1,0.2c-0.1,0.1-0.2,0.2-0.2,0.4c0,0.1,0.1,0.2,0.2,0.3c0.2,0.1,0.7,0.3,1.7,0.5c1,0.2,1.6,0.5,2,0.8
		c0.4,0.3,0.6,0.8,0.6,1.3c0,0.6-0.3,1.1-0.8,1.6c-0.5,0.4-1.3,0.7-2.3,0.7c-0.9,0-1.6-0.2-2.2-0.6C49.1,23.4,48.7,22.9,48.5,22.3z"
		/>
	<path class="st4" d="M60.3,22.1l1.8,0.3c-0.2,0.7-0.6,1.1-1.1,1.5c-0.5,0.3-1.1,0.5-1.9,0.5c-1.2,0-2-0.4-2.6-1.1
		c-0.4-0.6-0.7-1.4-0.7-2.3c0-1.1,0.3-2,0.9-2.6s1.3-0.9,2.2-0.9c1,0,1.8,0.3,2.4,1s0.9,1.7,0.8,3h-4.5c0,0.5,0.2,0.9,0.4,1.2
		s0.6,0.4,1,0.4c0.3,0,0.5-0.1,0.7-0.2S60.2,22.4,60.3,22.1z M60.4,20.3c0-0.5-0.1-0.9-0.4-1.2s-0.6-0.4-0.9-0.4
		c-0.4,0-0.7,0.1-1,0.4s-0.4,0.7-0.4,1.2H60.4z"/>
	<path class="st4" d="M66.7,17.5v1.4h-1.2v2.7c0,0.5,0,0.9,0,1c0,0.1,0.1,0.2,0.2,0.2c0.1,0.1,0.2,0.1,0.3,0.1
		c0.2,0,0.4-0.1,0.7-0.2l0.2,1.4c-0.4,0.2-0.9,0.3-1.4,0.3c-0.3,0-0.6-0.1-0.9-0.2c-0.3-0.1-0.4-0.2-0.6-0.4
		c-0.1-0.2-0.2-0.4-0.3-0.7c0-0.2-0.1-0.6-0.1-1.3v-2.9h-0.8v-1.4h0.8v-1.3l1.8-1v2.4H66.7z"/>
	<path class="st4" d="M73.7,24.2v-7.7h-2.8v-1.6h7.4v1.6h-2.8v7.7H73.7z"/>
	<path class="st4" d="M80.5,24.2h-1.8v-6.7h1.7v1c0.3-0.5,0.5-0.8,0.8-0.9c0.2-0.1,0.5-0.2,0.8-0.2c0.4,0,0.8,0.1,1.2,0.3l-0.6,1.6
		c-0.3-0.2-0.6-0.3-0.8-0.3c-0.2,0-0.5,0.1-0.6,0.2s-0.3,0.4-0.4,0.7c-0.1,0.4-0.1,1.1-0.1,2.3V24.2z"/>
	<path class="st4" d="M85.2,19.5l-1.6-0.3c0.2-0.7,0.5-1.1,0.9-1.4s1.1-0.5,2-0.5c0.8,0,1.4,0.1,1.8,0.3s0.7,0.4,0.8,0.7
		c0.2,0.3,0.2,0.8,0.2,1.6l0,2.1c0,0.6,0,1,0.1,1.3c0.1,0.3,0.2,0.6,0.3,0.9H88c0-0.1-0.1-0.3-0.2-0.5c0-0.1-0.1-0.2-0.1-0.2
		c-0.3,0.3-0.6,0.5-1,0.7c-0.3,0.1-0.7,0.2-1.1,0.2c-0.7,0-1.2-0.2-1.6-0.6c-0.4-0.4-0.6-0.9-0.6-1.4c0-0.4,0.1-0.7,0.3-1
		c0.2-0.3,0.4-0.5,0.8-0.7c0.3-0.2,0.8-0.3,1.4-0.4c0.8-0.2,1.4-0.3,1.7-0.4v-0.2c0-0.3-0.1-0.6-0.3-0.7c-0.2-0.1-0.5-0.2-1-0.2
		c-0.3,0-0.6,0.1-0.7,0.2S85.3,19.2,85.2,19.5z M87.6,21c-0.2,0.1-0.6,0.2-1.1,0.3c-0.5,0.1-0.8,0.2-1,0.3c-0.2,0.2-0.3,0.4-0.3,0.6
		c0,0.2,0.1,0.5,0.3,0.6c0.2,0.2,0.4,0.3,0.7,0.3c0.3,0,0.6-0.1,0.9-0.3c0.2-0.2,0.4-0.4,0.4-0.6c0-0.2,0.1-0.4,0.1-0.9V21z"/>
	<path class="st4" d="M97,19.5l-1.8,0.3c-0.1-0.4-0.2-0.6-0.4-0.8c-0.2-0.2-0.5-0.3-0.8-0.3c-0.4,0-0.8,0.2-1.1,0.5
		c-0.3,0.3-0.4,0.8-0.4,1.5c0,0.8,0.1,1.4,0.4,1.7c0.3,0.3,0.6,0.5,1.1,0.5c0.3,0,0.6-0.1,0.8-0.3s0.4-0.5,0.5-1l1.8,0.3
		c-0.2,0.8-0.5,1.4-1,1.8c-0.5,0.4-1.2,0.6-2.1,0.6c-1,0-1.8-0.3-2.4-0.9c-0.6-0.6-0.9-1.5-0.9-2.6c0-1.1,0.3-2,0.9-2.6
		s1.4-0.9,2.4-0.9c0.8,0,1.5,0.2,2,0.5C96.4,18.2,96.8,18.8,97,19.5z"/>
	<path class="st4" d="M98.3,24.2v-9.3h1.8v4.9l2.1-2.4h2.2l-2.3,2.5l2.5,4.3h-1.9l-1.7-3l-0.8,0.9v2.2H98.3z"/>
	<path class="st4" d="M109.5,22.1l1.8,0.3c-0.2,0.7-0.6,1.1-1.1,1.5c-0.5,0.3-1.1,0.5-1.9,0.5c-1.2,0-2-0.4-2.6-1.1
		c-0.4-0.6-0.7-1.4-0.7-2.3c0-1.1,0.3-2,0.9-2.6s1.3-0.9,2.2-0.9c1,0,1.8,0.3,2.4,1s0.9,1.7,0.8,3h-4.5c0,0.5,0.2,0.9,0.4,1.2
		s0.6,0.4,1,0.4c0.3,0,0.5-0.1,0.7-0.2S109.4,22.4,109.5,22.1z M109.6,20.3c0-0.5-0.1-0.9-0.4-1.2s-0.6-0.4-0.9-0.4
		c-0.4,0-0.7,0.1-1,0.4s-0.4,0.7-0.4,1.2H109.6z"/>
</g>
<g class="st3">
	<path class="st4" d="M115.2,24.2h-1.8v-6.7h1.7v1c0.3-0.5,0.5-0.8,0.8-0.9c0.2-0.1,0.5-0.2,0.8-0.2c0.4,0,0.8,0.1,1.2,0.3l-0.6,1.6
		c-0.3-0.2-0.6-0.3-0.8-0.3c-0.2,0-0.5,0.1-0.6,0.2c-0.2,0.1-0.3,0.4-0.4,0.7s-0.1,1.1-0.1,2.3V24.2z"/>
</g>
<g class="st3">
	<path class="st4" d="M121.2,14.4c0.5,0,1,0.1,1.4,0.4c0.4,0.2,0.8,0.6,1.1,1c0.3,0.5,0.4,0.9,0.4,1.4c0,0.5-0.1,1-0.4,1.4
		c-0.2,0.4-0.6,0.8-1,1c-0.4,0.2-0.9,0.4-1.4,0.4s-1-0.1-1.4-0.4c-0.4-0.3-0.8-0.6-1-1c-0.3-0.4-0.4-0.9-0.4-1.4
		c0-0.5,0.1-1,0.4-1.4c0.3-0.5,0.6-0.8,1.1-1C120.3,14.5,120.7,14.4,121.2,14.4z M121.2,14.9c-0.4,0-0.8,0.1-1.1,0.3
		c-0.4,0.2-0.6,0.5-0.8,0.8c-0.2,0.4-0.3,0.7-0.3,1.1c0,0.4,0.1,0.8,0.3,1.1s0.5,0.6,0.8,0.8s0.7,0.3,1.1,0.3c0.4,0,0.8-0.1,1.1-0.3
		c0.4-0.2,0.6-0.5,0.8-0.8s0.3-0.7,0.3-1.1c0-0.4-0.1-0.8-0.3-1.1s-0.5-0.6-0.8-0.8C122,15,121.6,14.9,121.2,14.9z M119.9,18.7v-3
		h0.6c0.6,0,0.9,0,1,0c0.2,0,0.4,0.1,0.5,0.1c0.1,0.1,0.2,0.2,0.3,0.3c0.1,0.1,0.1,0.3,0.1,0.4c0,0.2-0.1,0.4-0.2,0.6
		s-0.3,0.2-0.6,0.3c0.1,0,0.2,0.1,0.2,0.1c0,0,0.1,0.1,0.2,0.2c0,0,0.1,0.2,0.2,0.4l0.4,0.6h-0.8l-0.3-0.5c-0.2-0.3-0.3-0.5-0.4-0.6
		c-0.1-0.1-0.3-0.1-0.4-0.1h-0.2v1.2H119.9z M120.5,17h0.2c0.4,0,0.6,0,0.7,0c0.1,0,0.2-0.1,0.2-0.1c0-0.1,0.1-0.1,0.1-0.2
		c0-0.1,0-0.2-0.1-0.2s-0.1-0.1-0.2-0.1s-0.3,0-0.7,0h-0.2V17z"/>
</g>
<rect x="5.2" y="5.2" class="st2" width="144.7" height="27.9"/>
<path class="st5" d="M147.3,66.6c4,0,7.2-3.2,7.2-7.2h72V9h-72c0-4-3.2-7.2-7.2-7.2H8.7C4.7,1.8,1.5,5,1.5,9v50.4
	c0,4,3.2,7.2,7.2,7.2H147.3z"/>
<g>
	<line class="st5" x1="226.5" y1="25.8" x2="155" y2="25.8"/>
</g>
<g>
	<line class="st5" x1="226.5" y1="42.6" x2="155" y2="42.6"/>
</g>
<line class="st5" x1="154.5" y1="60.9" x2="154.5" y2="8.5"/>
<g id="background">
</g>
<g id="side_numbering">
</g>
<g id="Number_only_right">
</g>
<g id="Text_right">
</g>
<g id="QRCode">
</g>
</svg>
