<?xml version="1.0" encoding="utf-8"?>
<!-- Generator: Adobe Illustrator 23.0.0, SVG Export Plug-In . SVG Version: 6.00 Build 0)  -->
<svg version="1.1" id="Layer_1" xmlns="http://www.w3.org/2000/svg" xmlns:xlink="http://www.w3.org/1999/xlink" x="0px" y="0px"
	 viewBox="0 0 349 123.9" style="enable-background:new 0 0 349 123.9;" xml:space="preserve">
<style type="text/css">
	.st0{fill:#FFFFFF;stroke:#000000;stroke-miterlimit:10;}
	.st1{fill-rule:evenodd;clip-rule:evenodd;fill:#E5E6E7;}
	.st2{fill:none;}
	.st3{enable-background:new    ;}
	.st4{fill:#96979A;}
	.st5{fill:none;stroke:#96979A;stroke-width:0.9124;}
</style>
<g>
	<rect x="65.5" y="60.5" class="st0" width="148" height="32"/>
	<path class="st1" d="M67.1,62.4h144.7v27.9H67.1V62.4z M209.2,95.8c4,0,7.2-3.2,7.2-7.2h72V38.2h-72c0-4-3.2-7.2-7.2-7.2H70.6
		c-4,0-7.2,3.2-7.2,7.2v50.4c0,4,3.2,7.2,7.2,7.2H209.2z"/>
	<rect x="63.3" y="44.1" class="st2" width="152.8" height="12.2"/>
	<g class="st3">
		<path class="st4" d="M102.8,53.4h-2l-0.8-2.1h-3.7l-0.8,2.1h-2l3.6-9.3h2L102.8,53.4z M99.4,49.7l-1.3-3.5l-1.3,3.5H99.4z"/>
		<path class="st4" d="M103.2,51.5l1.8-0.3c0.1,0.3,0.2,0.6,0.5,0.8s0.6,0.3,1,0.3c0.5,0,0.8-0.1,1-0.3c0.2-0.1,0.2-0.3,0.2-0.5
			c0-0.1,0-0.2-0.1-0.3c-0.1-0.1-0.3-0.2-0.6-0.2c-1.4-0.3-2.4-0.6-2.7-0.9c-0.5-0.4-0.8-0.9-0.8-1.5c0-0.6,0.2-1.1,0.7-1.5
			s1.2-0.6,2.1-0.6c0.9,0,1.6,0.2,2.1,0.5c0.4,0.3,0.8,0.7,0.9,1.3l-1.7,0.3c-0.1-0.3-0.2-0.5-0.4-0.6c-0.2-0.1-0.5-0.2-0.9-0.2
			c-0.5,0-0.8,0.1-1,0.2c-0.1,0.1-0.2,0.2-0.2,0.4c0,0.1,0.1,0.2,0.2,0.3c0.2,0.1,0.7,0.3,1.7,0.5c1,0.2,1.6,0.5,2,0.8
			c0.4,0.3,0.6,0.8,0.6,1.3c0,0.6-0.3,1.1-0.8,1.6c-0.5,0.4-1.3,0.7-2.3,0.7c-0.9,0-1.6-0.2-2.2-0.6
			C103.7,52.6,103.4,52.1,103.2,51.5z"/>
		<path class="st4" d="M110.4,51.5l1.8-0.3c0.1,0.3,0.2,0.6,0.5,0.8s0.6,0.3,1,0.3c0.5,0,0.8-0.1,1-0.3c0.2-0.1,0.2-0.3,0.2-0.5
			c0-0.1,0-0.2-0.1-0.3c-0.1-0.1-0.3-0.2-0.6-0.2c-1.4-0.3-2.4-0.6-2.7-0.9c-0.5-0.4-0.8-0.9-0.8-1.5c0-0.6,0.2-1.1,0.7-1.5
			s1.2-0.6,2.1-0.6c0.9,0,1.6,0.2,2.1,0.5c0.4,0.3,0.8,0.7,0.9,1.3l-1.7,0.3c-0.1-0.3-0.2-0.5-0.4-0.6c-0.2-0.1-0.5-0.2-0.9-0.2
			c-0.5,0-0.8,0.1-1,0.2c-0.1,0.1-0.2,0.2-0.2,0.4c0,0.1,0.1,0.2,0.2,0.3c0.2,0.1,0.7,0.3,1.7,0.5c1,0.2,1.6,0.5,2,0.8
			c0.4,0.3,0.6,0.8,0.6,1.3c0,0.6-0.3,1.1-0.8,1.6c-0.5,0.4-1.3,0.7-2.3,0.7c-0.9,0-1.6-0.2-2.2-0.6
			C110.9,52.6,110.6,52.1,110.4,51.5z"/>
		<path class="st4" d="M122.2,51.2l1.8,0.3c-0.2,0.7-0.6,1.1-1.1,1.5c-0.5,0.3-1.1,0.5-1.9,0.5c-1.2,0-2-0.4-2.6-1.1
			c-0.4-0.6-0.7-1.4-0.7-2.3c0-1.1,0.3-2,0.9-2.6s1.3-0.9,2.2-0.9c1,0,1.8,0.3,2.4,1s0.9,1.7,0.8,3h-4.5c0,0.5,0.2,0.9,0.4,1.2
			s0.6,0.4,1,0.4c0.3,0,0.5-0.1,0.7-0.2S122.1,51.6,122.2,51.2z M122.3,49.4c0-0.5-0.1-0.9-0.4-1.2s-0.6-0.4-0.9-0.4
			c-0.4,0-0.7,0.1-1,0.4s-0.4,0.7-0.4,1.2H122.3z"/>
		<path class="st4" d="M128.6,46.6v1.4h-1.2v2.7c0,0.5,0,0.9,0,1c0,0.1,0.1,0.2,0.2,0.2c0.1,0.1,0.2,0.1,0.3,0.1
			c0.2,0,0.4-0.1,0.7-0.2l0.2,1.4c-0.4,0.2-0.9,0.3-1.4,0.3c-0.3,0-0.6-0.1-0.9-0.2c-0.3-0.1-0.4-0.2-0.6-0.4
			c-0.1-0.2-0.2-0.4-0.3-0.7c0-0.2-0.1-0.6-0.1-1.3v-2.9h-0.8v-1.4h0.8v-1.3l1.8-1v2.4H128.6z"/>
		<path class="st4" d="M135.6,53.4v-7.7h-2.8v-1.6h7.4v1.6h-2.8v7.7H135.6z"/>
		<path class="st4" d="M142.4,53.4h-1.8v-6.7h1.7v1c0.3-0.5,0.5-0.8,0.8-0.9c0.2-0.1,0.5-0.2,0.8-0.2c0.4,0,0.8,0.1,1.2,0.3
			l-0.6,1.6c-0.3-0.2-0.6-0.3-0.8-0.3c-0.2,0-0.5,0.1-0.6,0.2s-0.3,0.4-0.4,0.7c-0.1,0.4-0.1,1.1-0.1,2.3V53.4z"/>
		<path class="st4" d="M147.1,48.7l-1.6-0.3c0.2-0.7,0.5-1.1,0.9-1.4s1.1-0.5,2-0.5c0.8,0,1.4,0.1,1.8,0.3s0.7,0.4,0.8,0.7
			c0.2,0.3,0.2,0.8,0.2,1.6l0,2.1c0,0.6,0,1,0.1,1.3c0.1,0.3,0.2,0.6,0.3,0.9h-1.8c0-0.1-0.1-0.3-0.2-0.5c0-0.1-0.1-0.2-0.1-0.2
			c-0.3,0.3-0.6,0.5-1,0.7c-0.3,0.1-0.7,0.2-1.1,0.2c-0.7,0-1.2-0.2-1.6-0.6c-0.4-0.4-0.6-0.9-0.6-1.4c0-0.4,0.1-0.7,0.3-1
			c0.2-0.3,0.4-0.5,0.8-0.7c0.3-0.2,0.8-0.3,1.4-0.4c0.8-0.2,1.4-0.3,1.7-0.4v-0.2c0-0.3-0.1-0.6-0.3-0.7c-0.2-0.1-0.5-0.2-1-0.2
			c-0.3,0-0.6,0.1-0.7,0.2S147.2,48.4,147.1,48.7z M149.5,50.1c-0.2,0.1-0.6,0.2-1.1,0.3c-0.5,0.1-0.8,0.2-1,0.3
			c-0.2,0.2-0.3,0.4-0.3,0.6c0,0.2,0.1,0.5,0.3,0.6c0.2,0.2,0.4,0.3,0.7,0.3c0.3,0,0.6-0.1,0.9-0.3c0.2-0.2,0.4-0.4,0.4-0.6
			c0-0.2,0.1-0.4,0.1-0.9V50.1z"/>
		<path class="st4" d="M158.8,48.6l-1.8,0.3c-0.1-0.4-0.2-0.6-0.4-0.8c-0.2-0.2-0.5-0.3-0.8-0.3c-0.4,0-0.8,0.2-1.1,0.5
			c-0.3,0.3-0.4,0.8-0.4,1.5c0,0.8,0.1,1.4,0.4,1.7c0.3,0.3,0.6,0.5,1.1,0.5c0.3,0,0.6-0.1,0.8-0.3s0.4-0.5,0.5-1l1.8,0.3
			c-0.2,0.8-0.5,1.4-1,1.8c-0.5,0.4-1.2,0.6-2.1,0.6c-1,0-1.8-0.3-2.4-0.9c-0.6-0.6-0.9-1.5-0.9-2.6c0-1.1,0.3-2,0.9-2.6
			s1.4-0.9,2.4-0.9c0.8,0,1.5,0.2,2,0.5C158.3,47.4,158.6,47.9,158.8,48.6z"/>
		<path class="st4" d="M160.1,53.4v-9.3h1.8V49l2.1-2.4h2.2l-2.3,2.5l2.5,4.3h-1.9l-1.7-3l-0.8,0.9v2.2H160.1z"/>
		<path class="st4" d="M171.3,51.2l1.8,0.3c-0.2,0.7-0.6,1.1-1.1,1.5c-0.5,0.3-1.1,0.5-1.9,0.5c-1.2,0-2-0.4-2.6-1.1
			c-0.4-0.6-0.7-1.4-0.7-2.3c0-1.1,0.3-2,0.9-2.6s1.3-0.9,2.2-0.9c1,0,1.8,0.3,2.4,1s0.9,1.7,0.8,3h-4.5c0,0.5,0.2,0.9,0.4,1.2
			s0.6,0.4,1,0.4c0.3,0,0.5-0.1,0.7-0.2S171.2,51.6,171.3,51.2z M171.4,49.4c0-0.5-0.1-0.9-0.4-1.2s-0.6-0.4-0.9-0.4
			c-0.4,0-0.7,0.1-1,0.4s-0.4,0.7-0.4,1.2H171.4z"/>
	</g>
	<g class="st3">
		<path class="st4" d="M177.1,53.4h-1.8v-6.7h1.7v1c0.3-0.5,0.5-0.8,0.8-0.9s0.5-0.2,0.8-0.2c0.4,0,0.8,0.1,1.2,0.3l-0.6,1.6
			c-0.3-0.2-0.6-0.3-0.8-0.3c-0.2,0-0.5,0.1-0.6,0.2c-0.2,0.1-0.3,0.4-0.4,0.7c-0.1,0.4-0.1,1.1-0.1,2.3V53.4z"/>
	</g>
	<g class="st3">
		<path class="st4" d="M183.1,43.5c0.5,0,1,0.1,1.4,0.4c0.4,0.2,0.8,0.6,1.1,1s0.4,0.9,0.4,1.4c0,0.5-0.1,1-0.4,1.4
			c-0.2,0.4-0.6,0.8-1,1c-0.4,0.2-0.9,0.4-1.4,0.4c-0.5,0-1-0.1-1.4-0.4c-0.4-0.3-0.8-0.6-1-1c-0.3-0.4-0.4-0.9-0.4-1.4
			c0-0.5,0.1-1,0.4-1.4s0.6-0.8,1.1-1S182.6,43.5,183.1,43.5z M183.1,44.1c-0.4,0-0.8,0.1-1.1,0.3c-0.4,0.2-0.6,0.5-0.8,0.8
			c-0.2,0.4-0.3,0.7-0.3,1.1c0,0.4,0.1,0.8,0.3,1.1s0.5,0.6,0.8,0.8c0.4,0.2,0.7,0.3,1.1,0.3c0.4,0,0.8-0.1,1.1-0.3s0.6-0.5,0.8-0.8
			s0.3-0.7,0.3-1.1c0-0.4-0.1-0.8-0.3-1.1c-0.2-0.4-0.5-0.6-0.8-0.8C183.8,44.2,183.5,44.1,183.1,44.1z M181.8,47.9v-3h0.6
			c0.6,0,0.9,0,1,0c0.2,0,0.4,0.1,0.5,0.1c0.1,0.1,0.2,0.2,0.3,0.3c0.1,0.1,0.1,0.3,0.1,0.4c0,0.2-0.1,0.4-0.2,0.6
			c-0.1,0.2-0.3,0.2-0.6,0.3c0.1,0,0.2,0.1,0.2,0.1s0.1,0.1,0.2,0.2c0,0,0.1,0.2,0.2,0.4l0.4,0.6h-0.8l-0.3-0.5
			c-0.2-0.3-0.3-0.5-0.4-0.6c-0.1-0.1-0.3-0.1-0.4-0.1h-0.2v1.2H181.8z M182.4,46.2h0.2c0.4,0,0.6,0,0.7,0c0.1,0,0.2-0.1,0.2-0.1
			c0-0.1,0.1-0.1,0.1-0.2c0-0.1,0-0.2-0.1-0.2c0-0.1-0.1-0.1-0.2-0.1c-0.1,0-0.3,0-0.7,0h-0.2V46.2z"/>
	</g>
	<rect x="67.1" y="34.4" class="st2" width="144.7" height="27.9"/>
	<path class="st5" d="M209.2,95.8c4,0,7.2-3.2,7.2-7.2h72V38.2h-72c0-4-3.2-7.2-7.2-7.2H70.6c-4,0-7.2,3.2-7.2,7.2v50.4
		c0,4,3.2,7.2,7.2,7.2H209.2z"/>
	<g>
		<line class="st5" x1="288.4" y1="55" x2="216.9" y2="55"/>
	</g>
	<g>
		<line class="st5" x1="288.4" y1="71.8" x2="216.9" y2="71.8"/>
	</g>
	<line class="st5" x1="216.4" y1="90.1" x2="216.4" y2="37.7"/>
	<rect x="59.8" y="27.4" class="st2" width="232.2" height="72"/>
	<g>
		<line class="st5" x1="63.3" y1="26" x2="63.3" y2="11.5"/>
		<line class="st5" x1="216.1" y1="26" x2="216.1" y2="11.5"/>
		<g>
			<g>
				<line class="st5" x1="67.5" y1="18.8" x2="212" y2="18.8"/>
				<g>
					<polygon class="st4" points="69.4,21.3 68.3,18.8 69.4,16.2 63.4,18.8 					"/>
				</g>
				<g>
					<polygon class="st4" points="210.1,21.3 211.1,18.8 210.1,16.2 216.1,18.8 					"/>
				</g>
			</g>
		</g>
	</g>
	<g class="st3">
		<path d="M120.2,14.5v-1.1c0.4-0.9,1.1-1.8,2.2-2.8l0.7-0.6c0.9-0.8,1.4-1.7,1.4-2.5c0-0.5-0.2-0.9-0.5-1.2
			c-0.3-0.3-0.7-0.5-1.3-0.5c-0.7,0-1.4,0.3-2.3,0.8V5.5c0.8-0.4,1.7-0.6,2.5-0.6c0.9,0,1.6,0.2,2.1,0.7c0.5,0.5,0.8,1.1,0.8,1.9
			c0,0.6-0.1,1.1-0.4,1.5c-0.3,0.4-0.8,1-1.5,1.6l-0.5,0.4c-1,0.8-1.6,1.7-1.7,2.4h4.1v1.1H120.2z"/>
		<path d="M128.6,14.5v-1.6h1.6v1.6H128.6z"/>
		<path d="M133.4,14.5v-0.9h1.9V6.1l-1.9,0.5v-1l3.1-0.8v8.7h1.9v0.9H133.4z"/>
		<path d="M140.7,14.5v-1.1c0.4-0.9,1.1-1.8,2.2-2.8l0.7-0.6c0.9-0.8,1.4-1.7,1.4-2.5c0-0.5-0.2-0.9-0.5-1.2
			c-0.3-0.3-0.7-0.5-1.3-0.5c-0.7,0-1.4,0.3-2.3,0.8V5.5c0.8-0.4,1.7-0.6,2.5-0.6c0.9,0,1.6,0.2,2.1,0.7c0.5,0.5,0.8,1.1,0.8,1.9
			c0,0.6-0.1,1.1-0.4,1.5c-0.3,0.4-0.8,1-1.5,1.6L144,11c-1,0.8-1.6,1.7-1.7,2.4h4.1v1.1H140.7z"/>
		<path d="M149.4,14.5v-1.1c0.6,0.2,1.2,0.4,1.8,0.4c0.6,0,1.1-0.2,1.5-0.5c0.4-0.4,0.5-0.9,0.5-1.5c0-1.4-1-2.1-2.9-2.1
			c-0.2,0-0.5,0-0.7,0V5.1h4.8v1.1h-3.7v2.5c1.2,0,2.1,0.3,2.8,0.8c0.7,0.6,1,1.3,1,2.3c0,0.9-0.3,1.6-0.9,2.1
			c-0.6,0.5-1.5,0.8-2.6,0.8C150.6,14.7,150,14.7,149.4,14.5z"/>
		<path d="M156.9,7.8V7.3c0.1-0.1,0.3-0.2,0.3-0.4c0.1-0.2,0.1-0.5,0.1-0.8V5.9h-0.6V4.5h1.4v1.1c0,0.6-0.1,1.2-0.3,1.5
			C157.7,7.4,157.4,7.7,156.9,7.8z M159.3,7.8V7.3c0.1-0.1,0.3-0.2,0.3-0.4c0.1-0.2,0.1-0.5,0.1-0.8V5.9h-0.6V4.5h1.4v1.1
			c0,0.6-0.1,1.2-0.3,1.5C160,7.4,159.7,7.7,159.3,7.8z"/>
	</g>
	<g class="st3">
		<path d="M247.5,14.5v-0.9h1.9V6.1l-1.9,0.5v-1l3.1-0.8v8.7h1.9v0.9H247.5z"/>
		<path d="M254.6,7.8V7.3c0.1-0.1,0.3-0.2,0.3-0.4c0.1-0.2,0.1-0.5,0.1-0.8V5.9h-0.6V4.5h1.4v1.1c0,0.6-0.1,1.2-0.3,1.5
			C255.3,7.4,255,7.7,254.6,7.8z M257,7.8V7.3c0.1-0.1,0.3-0.2,0.3-0.4c0.1-0.2,0.1-0.5,0.1-0.8V5.9h-0.6V4.5h1.4v1.1
			c0,0.6-0.1,1.2-0.3,1.5C257.7,7.4,257.4,7.7,257,7.8z"/>
	</g>
	<g>
		<line class="st5" x1="58.4" y1="95.8" x2="43.9" y2="95.8"/>
		<line class="st5" x1="58.4" y1="31" x2="43.9" y2="31"/>
		<g>
			<g>
				<line class="st5" x1="51.2" y1="91.6" x2="51.2" y2="35.1"/>
				<g>
					<polygon class="st4" points="53.7,89.7 51.2,90.8 48.6,89.7 51.2,95.7 					"/>
				</g>
				<g>
					<polygon class="st4" points="53.7,37 51.2,35.9 48.6,37 51.2,31 					"/>
				</g>
			</g>
		</g>
	</g>
	<g>
		<line class="st5" x1="307.8" y1="71.8" x2="293.3" y2="71.8"/>
		<line class="st5" x1="307.8" y1="55" x2="293.3" y2="55"/>
		<g>
			<g>
				<line class="st5" x1="300.6" y1="67.7" x2="300.6" y2="59"/>
				<g>
					<polygon class="st4" points="303.1,65.8 300.6,66.8 298,65.8 300.6,71.8 					"/>
				</g>
				<g>
					<polygon class="st4" points="303.1,61 300.6,59.9 298,61 300.6,55 					"/>
				</g>
			</g>
		</g>
	</g>
	<g class="st3">
		<path d="M17.3,56.2v-1.6h1.6v1.6H17.3z"/>
		<path d="M21.6,56.2v-1.1c0.8,0.3,1.5,0.4,2,0.4c0.8,0,1.4-0.3,1.8-1c0.4-0.7,0.7-1.6,0.7-2.8C25.5,52.6,24.8,53,24,53
			c-0.8,0-1.5-0.3-2-0.9s-0.8-1.3-0.8-2.1c0-1,0.3-1.8,0.9-2.4c0.6-0.6,1.3-0.9,2.2-0.9c1,0,1.8,0.4,2.4,1.2
			c0.6,0.8,0.9,1.9,0.9,3.4c0,1.6-0.4,2.9-1.1,3.8c-0.7,1-1.7,1.4-2.9,1.4C23,56.5,22.4,56.4,21.6,56.2z M22.4,49.7
			c0,0.7,0.2,1.3,0.5,1.7c0.3,0.4,0.8,0.6,1.3,0.6c0.5,0,1-0.2,1.4-0.5c0.4-0.4,0.6-0.8,0.6-1.3c0-0.8-0.2-1.4-0.5-1.9
			c-0.4-0.5-0.8-0.7-1.4-0.7c-0.5,0-1,0.2-1.3,0.6C22.5,48.5,22.4,49,22.4,49.7z"/>
		<path d="M29.2,49.5V49c0.1-0.1,0.3-0.2,0.3-0.4c0.1-0.2,0.1-0.5,0.1-0.8v-0.1h-0.6v-1.4h1.4v1.1c0,0.6-0.1,1.2-0.3,1.5
			C30,49.2,29.6,49.4,29.2,49.5z M31.6,49.5V49c0.1-0.1,0.3-0.2,0.3-0.4c0.1-0.2,0.1-0.5,0.1-0.8v-0.1h-0.6v-1.4h1.4v1.1
			c0,0.6-0.1,1.2-0.3,1.5C32.3,49.2,32,49.4,31.6,49.5z"/>
	</g>
	<g class="st3">
		<path d="M5.5,79.8v-1.1C5.9,77.9,6.6,77,7.7,76l0.7-0.6c0.9-0.8,1.4-1.7,1.4-2.5c0-0.5-0.2-0.9-0.5-1.2c-0.3-0.3-0.7-0.5-1.3-0.5
			c-0.7,0-1.4,0.3-2.3,0.8v-1.1c0.8-0.4,1.7-0.6,2.5-0.6c0.9,0,1.6,0.2,2.1,0.7c0.5,0.5,0.8,1.1,0.8,1.9c0,0.6-0.1,1.1-0.4,1.5
			c-0.3,0.4-0.8,1-1.5,1.6l-0.5,0.4c-1,0.8-1.6,1.7-1.7,2.4h4.1v1.1H5.5z"/>
		<path d="M14,79.8v-1.2c0.9,0.4,1.6,0.5,2.1,0.5c0.6,0,1.1-0.2,1.5-0.5c0.4-0.3,0.6-0.8,0.6-1.4c0-1.3-0.9-2-2.8-2h-0.5v-0.8l0.4,0
			c1.7,0,2.6-0.6,2.6-1.8c0-1-0.6-1.4-1.7-1.4c-0.6,0-1.3,0.2-2.1,0.5v-1.1c0.7-0.2,1.5-0.4,2.2-0.4c1.9,0,2.9,0.7,2.9,2.2
			c0,1.1-0.7,1.9-2,2.4c1.5,0.4,2.3,1.2,2.3,2.5c0,0.9-0.3,1.6-0.9,2.1s-1.4,0.8-2.4,0.8C15.6,80.1,14.9,80,14,79.8z"/>
		<path d="M22.1,79.8V73h1.3v1.3c0.6-1,1.4-1.4,2.3-1.4c0.9,0,1.6,0.5,1.9,1.4c0.6-1,1.4-1.5,2.3-1.5c0.6,0,1.1,0.2,1.4,0.5
			s0.5,0.9,0.5,1.5v5h-1.3V75c0-0.8-0.3-1.2-0.9-1.2c-0.6,0-1.3,0.5-2,1.4v4.6h-1.3V75c0-0.8-0.3-1.2-1-1.2c-0.6,0-1.3,0.5-2,1.4
			v4.6H22.1z"/>
		<path d="M34.3,79.8V73h1.3v1.3c0.6-1,1.4-1.4,2.3-1.4c0.9,0,1.6,0.5,1.9,1.4c0.6-1,1.4-1.5,2.3-1.5c0.6,0,1.1,0.2,1.4,0.5
			s0.5,0.9,0.5,1.5v5h-1.3V75c0-0.8-0.3-1.2-0.9-1.2c-0.6,0-1.3,0.5-2,1.4v4.6h-1.3V75c0-0.8-0.3-1.2-1-1.2c-0.6,0-1.3,0.5-2,1.4
			v4.6H34.3z"/>
	</g>
	<g class="st3">
		<path d="M317.9,57.2v-1.6h1.6v1.6H317.9z"/>
		<path d="M321.9,57.2v-1.1c0.4-0.9,1.1-1.8,2.2-2.8l0.7-0.6c0.9-0.8,1.4-1.7,1.4-2.5c0-0.5-0.2-0.9-0.5-1.2
			c-0.3-0.3-0.7-0.5-1.3-0.5c-0.7,0-1.4,0.3-2.3,0.8v-1.1c0.8-0.4,1.7-0.6,2.5-0.6c0.9,0,1.6,0.2,2.1,0.7c0.5,0.5,0.8,1.1,0.8,1.9
			c0,0.6-0.1,1.1-0.4,1.5c-0.3,0.4-0.8,1-1.5,1.6l-0.5,0.4c-1,0.8-1.6,1.7-1.7,2.4h4.1v1.1H321.9z"/>
		<path d="M330.6,57.3v-1.1c0.6,0.2,1.2,0.4,1.8,0.4c0.6,0,1.1-0.2,1.5-0.5c0.4-0.4,0.5-0.9,0.5-1.5c0-1.4-1-2.1-2.9-2.1
			c-0.2,0-0.5,0-0.7,0v-4.6h4.8v1.1h-3.7v2.5c1.2,0,2.1,0.3,2.8,0.8c0.7,0.6,1,1.3,1,2.3c0,0.9-0.3,1.6-0.9,2.1
			c-0.6,0.5-1.5,0.8-2.6,0.8C331.7,57.5,331.2,57.4,330.6,57.3z"/>
		<path d="M338.1,50.5V50c0.1-0.1,0.3-0.2,0.3-0.4c0.1-0.2,0.1-0.5,0.1-0.8v-0.1h-0.6v-1.4h1.4v1.1c0,0.6-0.1,1.2-0.3,1.5
			C338.8,50.2,338.5,50.4,338.1,50.5z M340.4,50.5V50c0.1-0.1,0.3-0.2,0.3-0.4c0.1-0.2,0.1-0.5,0.1-0.8v-0.1h-0.6v-1.4h1.4v1.1
			c0,0.6-0.1,1.2-0.3,1.5C341.2,50.2,340.9,50.4,340.4,50.5z"/>
	</g>
	<g class="st3">
		<path d="M315.5,76c0.6-0.8,1.3-1.2,2.3-1.2c0.8,0,1.5,0.3,2,0.8c0.5,0.5,0.8,1.2,0.8,2.1c0,1-0.3,1.8-0.9,2.4s-1.3,0.9-2.2,0.9
			c-1,0-1.8-0.4-2.4-1.2s-0.9-2-0.9-3.5c0-1.6,0.3-2.9,1-3.8c0.7-0.9,1.6-1.4,2.8-1.4c0.6,0,1.3,0.1,2.1,0.4v1.1
			c-0.9-0.3-1.6-0.5-2.2-0.5C316.3,72.2,315.5,73.4,315.5,76z M319.3,78c0-0.7-0.2-1.3-0.5-1.7c-0.3-0.4-0.8-0.6-1.3-0.6
			c-0.5,0-1,0.2-1.4,0.5s-0.6,0.8-0.6,1.3c0,0.8,0.2,1.4,0.5,1.9c0.4,0.5,0.8,0.7,1.4,0.7c0.5,0,1-0.2,1.3-0.6
			C319.1,79.2,319.3,78.7,319.3,78z"/>
		<path d="M322.7,80.8V74h1.3v1.3c0.6-1,1.4-1.4,2.3-1.4c0.9,0,1.6,0.5,1.9,1.4c0.6-1,1.4-1.5,2.3-1.5c0.6,0,1.1,0.2,1.4,0.5
			c0.3,0.4,0.5,0.9,0.5,1.5v5h-1.3V76c0-0.8-0.3-1.2-0.9-1.2c-0.6,0-1.3,0.5-2,1.4v4.6H327V76c0-0.8-0.3-1.2-1-1.2
			c-0.6,0-1.3,0.5-2,1.4v4.6H322.7z"/>
		<path d="M334.9,80.8V74h1.3v1.3c0.6-1,1.4-1.4,2.3-1.4c0.9,0,1.6,0.5,1.9,1.4c0.6-1,1.4-1.5,2.3-1.5c0.6,0,1.1,0.2,1.4,0.5
			c0.3,0.4,0.5,0.9,0.5,1.5v5h-1.3V76c0-0.8-0.3-1.2-0.9-1.2c-0.6,0-1.3,0.5-2,1.4v4.6h-1.3V76c0-0.8-0.3-1.2-1-1.2
			c-0.6,0-1.3,0.5-2,1.4v4.6H334.9z"/>
	</g>
	<g>
		<line class="st5" x1="63.3" y1="115.2" x2="63.3" y2="100.7"/>
		<line class="st5" x1="216.1" y1="115.2" x2="216.1" y2="100.7"/>
		<g>
			<g>
				<line class="st5" x1="67.5" y1="108" x2="212" y2="108"/>
				<g>
					<polygon class="st4" points="69.4,110.5 68.3,108 69.4,105.4 63.4,108 					"/>
				</g>
				<g>
					<polygon class="st4" points="210.1,110.5 211.1,108 210.1,105.4 216.1,108 					"/>
				</g>
			</g>
		</g>
	</g>
	<g>
		<line class="st5" x1="216.1" y1="115.2" x2="216.1" y2="100.7"/>
		<line class="st5" x1="288.4" y1="115.2" x2="288.4" y2="100.7"/>
		<g>
			<g>
				<line class="st5" x1="220.2" y1="108" x2="284.3" y2="108"/>
				<g>
					<polygon class="st4" points="222.1,110.5 221,108 222.1,105.4 216.1,108 					"/>
				</g>
				<g>
					<polygon class="st4" points="282.4,110.5 283.4,108 282.4,105.4 288.4,108 					"/>
				</g>
			</g>
		</g>
	</g>
	<g class="st3">
		<path d="M121.4,122.1V121c0.6,0.2,1.2,0.4,1.8,0.4c0.6,0,1.1-0.2,1.5-0.5c0.4-0.4,0.5-0.9,0.5-1.5c0-1.4-1-2.1-2.9-2.1
			c-0.2,0-0.5,0-0.7,0v-4.6h4.8v1.1h-3.7v2.5c1.2,0,2.1,0.3,2.8,0.8c0.7,0.6,1,1.3,1,2.3c0,0.9-0.3,1.6-0.9,2.1
			c-0.6,0.5-1.5,0.8-2.6,0.8C122.5,122.3,122,122.2,121.4,122.1z"/>
		<path d="M132.9,122v-2.7h-4.2v-0.9l4.2-5.8h1.2v5.7h1.3v1h-1.3v2.7H132.9z M129.9,118.4h3.1v-4.2L129.9,118.4z"/>
		<path d="M137.5,122v-6.9h1.3v1.3c0.6-1,1.4-1.4,2.3-1.4c0.9,0,1.6,0.5,1.9,1.4c0.6-1,1.4-1.5,2.3-1.5c0.6,0,1.1,0.2,1.4,0.5
			s0.5,0.9,0.5,1.5v5H146v-4.8c0-0.8-0.3-1.2-0.9-1.2c-0.6,0-1.3,0.5-2,1.4v4.6h-1.3v-4.8c0-0.8-0.3-1.2-1-1.2c-0.6,0-1.3,0.5-2,1.4
			v4.6H137.5z"/>
		<path d="M149.6,122v-6.9h1.3v1.3c0.6-1,1.4-1.4,2.3-1.4c0.9,0,1.6,0.5,1.9,1.4c0.6-1,1.4-1.5,2.3-1.5c0.6,0,1.1,0.2,1.4,0.5
			s0.5,0.9,0.5,1.5v5h-1.3v-4.8c0-0.8-0.3-1.2-0.9-1.2c-0.6,0-1.3,0.5-2,1.4v4.6h-1.3v-4.8c0-0.8-0.3-1.2-1-1.2
			c-0.6,0-1.3,0.5-2,1.4v4.6H149.6z"/>
	</g>
	<g class="st3">
		<path d="M233.3,122v-1.1c0.4-0.9,1.1-1.8,2.2-2.8l0.7-0.6c0.9-0.8,1.4-1.7,1.4-2.5c0-0.5-0.2-0.9-0.5-1.2s-0.7-0.5-1.3-0.5
			c-0.7,0-1.4,0.3-2.3,0.8V113c0.8-0.4,1.7-0.6,2.5-0.6c0.9,0,1.6,0.2,2.1,0.7c0.5,0.5,0.8,1.1,0.8,1.9c0,0.6-0.1,1.1-0.4,1.5
			s-0.8,1-1.5,1.6l-0.5,0.4c-1,0.8-1.6,1.7-1.7,2.4h4.1v1.1H233.3z"/>
		<path d="M242.1,122.1V121c0.6,0.2,1.2,0.4,1.8,0.4c0.6,0,1.1-0.2,1.5-0.5c0.4-0.4,0.5-0.9,0.5-1.5c0-1.4-1-2.1-2.9-2.1
			c-0.2,0-0.5,0-0.7,0v-4.6h4.8v1.1h-3.7v2.5c1.2,0,2.1,0.3,2.8,0.8c0.7,0.6,1,1.3,1,2.3c0,0.9-0.3,1.6-0.9,2.1
			c-0.6,0.5-1.5,0.8-2.6,0.8C243.2,122.3,242.7,122.2,242.1,122.1z"/>
		<path d="M250,122v-6.9h1.3v1.3c0.6-1,1.4-1.4,2.3-1.4c0.9,0,1.6,0.5,1.9,1.4c0.6-1,1.4-1.5,2.3-1.5c0.6,0,1.1,0.2,1.4,0.5
			c0.3,0.4,0.5,0.9,0.5,1.5v5h-1.3v-4.8c0-0.8-0.3-1.2-0.9-1.2c-0.6,0-1.3,0.5-2,1.4v4.6h-1.3v-4.8c0-0.8-0.3-1.2-1-1.2
			c-0.6,0-1.3,0.5-2,1.4v4.6H250z"/>
		<path d="M262.1,122v-6.9h1.3v1.3c0.6-1,1.4-1.4,2.3-1.4c0.9,0,1.6,0.5,1.9,1.4c0.6-1,1.4-1.5,2.3-1.5c0.6,0,1.1,0.2,1.4,0.5
			c0.3,0.4,0.5,0.9,0.5,1.5v5h-1.3v-4.8c0-0.8-0.3-1.2-0.9-1.2c-0.6,0-1.3,0.5-2,1.4v4.6h-1.3v-4.8c0-0.8-0.3-1.2-1-1.2
			c-0.6,0-1.3,0.5-2,1.4v4.6H262.1z"/>
	</g>
	<g>
		<line class="st5" x1="216.1" y1="26" x2="216.1" y2="11.5"/>
		<line class="st5" x1="288.4" y1="26" x2="288.4" y2="11.5"/>
		<g>
			<g>
				<line class="st5" x1="220.2" y1="18.8" x2="284.3" y2="18.8"/>
				<g>
					<polygon class="st4" points="222.1,21.3 221,18.8 222.1,16.2 216.1,18.8 					"/>
				</g>
				<g>
					<polygon class="st4" points="282.4,21.3 283.4,18.8 282.4,16.2 288.4,18.8 					"/>
				</g>
			</g>
		</g>
	</g>
	<line class="st5" x1="300.6" y1="63.4" x2="313.8" y2="63.4"/>
</g>
<g id="background">
</g>
<g id="side_numbering">
</g>
<g id="Number_only_right">
</g>
<g id="Text_right">
</g>
<g id="QRCode">
</g>
<g id="Outline">
</g>
</svg>
