<?xml version="1.0" encoding="utf-8"?>
<!-- Generator: Adobe Illustrator 23.0.0, SVG Export Plug-In . SVG Version: 6.00 Build 0)  -->
<svg version="1.1" id="Layer_1" xmlns="http://www.w3.org/2000/svg" xmlns:xlink="http://www.w3.org/1999/xlink" x="0px" y="0px"
	 viewBox="0 0 145.8 73.8" style="enable-background:new 0 0 145.8 73.8;" xml:space="preserve">
<style type="text/css">
	.st0{fill:#FFFFFF;}
	.st1{fill:#E5E6E7;}
	.st2{fill:none;stroke:#96979A;}
</style>
<g id="background">
	<path class="st0" d="M1.6,31.7v34.9c0,3.2,2.6,5.8,5.8,5.8h66.7h64.7c3.2,0,5.8-2.6,5.8-5.8V31.7H1.6z"/>
	<path class="st1" d="M138.8,1.3H7.4c-3.2,0-5.8,2.6-5.8,5.8v24.6h143V7.1C144.6,3.9,142,1.3,138.8,1.3z"/>
</g>
<g id="Outline">
	<path class="st2" d="M74.1,72.3H7.3c-3.2,0-5.8-2.6-5.8-5.8V7c0-3.2,2.6-5.8,5.8-5.8h131.5c3.2,0,5.8,2.6,5.8,5.8v59.5
		c0,3.2-2.6,5.8-5.8,5.8H74.1"/>
</g>
</svg>
